<svg xmlns="http://www.w3.org/2000/svg" viewBox="0 0 200 300" fill="none">
  <!-- Corpo -->
  <ellipse cx="100" cy="180" rx="45" ry="70" fill="#0EA5E9"/>
  <rect x="70" y="120" width="60" height="80" fill="#0EA5E9" rx="10"/>
  
  <!-- Cintura -->
  <rect x="65" y="175" width="70" height="15" fill="#FFD51F"/>
  
  <!-- Gambe -->
  <rect x="75" y="190" width="20" height="60" fill="#0EA5E9" rx="8"/>
  <rect x="105" y="190" width="20" height="60" fill="#0EA5E9" rx="8"/>
  
  <!-- Stivali -->
  <rect x="70" y="240" width="25" height="20" fill="#FFD51F" rx="5"/>
  <rect x="105" y="240" width="25" height="20" fill="#FFD51F" rx="5"/>
  
  <!-- Braccia -->
  <rect x="40" y="130" width="18" height="50" fill="#0EA5E9" rx="8" transform="rotate(-20 49 155)"/>
  <rect x="142" y="130" width="18" height="50" fill="#0EA5E9" rx="8" transform="rotate(20 151 155)"/>
  
  <!-- Guanti -->
  <circle cx="45" cy="185" r="12" fill="#FFD51F"/>
  <circle cx="155" cy="185" r="12" fill="#FFD51F"/>
  
  <!-- Logo sul petto -->
  <circle cx="100" cy="150" r="18" fill="#FFD51F"/>
  <text x="100" y="158" font-family="Arial Black" font-size="24" font-weight="bold" fill="#061426" text-anchor="middle">I</text>
  
  <!-- Testa -->
  <circle cx="100" cy="80" r="35" fill="#FDB4A0"/>
  
  <!-- Maschera -->
  <ellipse cx="100" cy="75" rx="38" ry="25" fill="#FFD51F"/>
  <path d="M 70 75 Q 85 85 100 75 Q 115 85 130 75" fill="#061426" opacity="0.3"/>
  
  <!-- Occhi -->
  <ellipse cx="88" cy="75" rx="8" ry="10" fill="white"/>
  <ellipse cx="112" cy="75" rx="8" ry="10" fill="white"/>
  <circle cx="88" cy="77" r="4" fill="#061426"/>
  <circle cx="112" cy="77" r="4" fill="#061426"/>
  
  <!-- Capelli -->
  <path d="M 70 60 Q 75 45 85 50 Q 90 40 100 45 Q 110 40 115 50 Q 125 45 130 60" fill="#2C1810"/>
  
  <!-- Mantello -->
  <path d="M 70 120 Q 50 180 60 250 L 70 240 Q 65 180 75 130 Z" fill="#ED1C24" opacity="0.8"/>
  <path d="M 130 120 Q 150 180 140 250 L 130 240 Q 135 180 125 130 Z" fill="#ED1C24" opacity="0.8"/>
</svg>
